<svg width="200" height="200" viewBox="0 0 200 200" fill="none" xmlns="http://www.w3.org/2000/svg">
<rect width="200" height="200" rx="40" fill="url(#paint0_linear_3_10)"/>
<path d="M22.072 122V115.6L46.136 82.896H23.224V76.56H53.816V82.96L29.816 115.664H54.328V122H22.072ZM79.583 122.768C76.383 122.768 73.5883 122.043 71.199 120.592C68.8523 119.141 67.0177 117.072 65.695 114.384C64.415 111.696 63.775 108.56 63.775 104.976C63.775 101.392 64.415 98.2773 65.695 95.632C67.0177 92.9867 68.831 90.9173 71.135 89.424C73.4817 87.9307 76.2337 87.184 79.391 87.184C82.4203 87.184 85.087 87.9093 87.391 89.36C89.695 90.768 91.487 92.816 92.767 95.504C94.0897 98.1493 94.751 101.349 94.751 105.104V106.896H70.559C70.7723 110.139 71.6683 112.613 73.247 114.32C74.8683 115.984 77.0017 116.816 79.647 116.816C81.6523 116.816 83.3163 116.347 84.639 115.408C85.9617 114.427 86.879 113.168 87.391 111.632L94.175 112.08C93.1937 115.323 91.423 117.925 88.863 119.888C86.3457 121.808 83.2523 122.768 79.583 122.768ZM70.559 101.712H87.775C87.519 98.8107 86.623 96.656 85.087 95.248C83.5937 93.84 81.695 93.136 79.391 93.136C77.0017 93.136 75.039 93.8613 73.503 95.312C71.967 96.7627 70.9857 98.896 70.559 101.712ZM105.99 122V87.952H111.942L112.134 96.848L111.43 96.336C111.857 94.2453 112.603 92.5387 113.67 91.216C114.779 89.8507 116.123 88.848 117.702 88.208C119.281 87.5253 120.966 87.184 122.758 87.184C125.318 87.184 127.43 87.76 129.094 88.912C130.758 90.0213 132.017 91.5573 132.87 93.52C133.723 95.44 134.15 97.616 134.15 100.048V122H127.686V101.712C127.686 98.768 127.11 96.5493 125.958 95.056C124.849 93.5627 123.163 92.816 120.902 92.816C119.323 92.816 117.894 93.1573 116.614 93.84C115.377 94.5227 114.374 95.5467 113.606 96.912C112.838 98.2347 112.454 99.8773 112.454 101.84V122H105.99ZM175.597 131.6H169.133V114.576L169.965 115.472C169.496 117.008 168.728 118.331 167.661 119.44C166.637 120.507 165.378 121.339 163.885 121.936C162.392 122.491 160.77 122.768 159.021 122.768C155.778 122.768 153.09 121.957 150.957 120.336C148.866 118.672 147.309 116.496 146.285 113.808C145.261 111.12 144.749 108.176 144.749 104.976C144.749 101.776 145.261 98.832 146.285 96.144C147.309 93.456 148.866 91.3013 150.957 89.68C153.09 88.016 155.778 87.184 159.021 87.184C161.709 87.184 164.013 87.888 165.933 89.296C167.896 90.6613 169.282 92.6667 170.093 95.312L169.325 95.696L169.453 87.952H175.597V131.6ZM160.237 116.816C162.072 116.816 163.65 116.389 164.973 115.536C166.296 114.64 167.32 113.317 168.045 111.568C168.77 109.819 169.133 107.621 169.133 104.976C169.133 102.331 168.749 100.133 167.981 98.384C167.256 96.6347 166.232 95.3333 164.909 94.48C163.586 93.584 162.029 93.136 160.237 93.136C157.506 93.136 155.373 94.16 153.837 96.208C152.301 98.256 151.533 101.179 151.533 104.976C151.533 108.773 152.301 111.696 153.837 113.744C155.373 115.792 157.506 116.816 160.237 116.816Z" fill="white"/>
<defs>
<linearGradient id="paint0_linear_3_10" x1="0" y1="0" x2="200" y2="200" gradientUnits="userSpaceOnUse">
<stop stop-color="#00D5BE"/>
<stop offset="1" stop-color="#05DF72"/>
</linearGradient>
</defs>
</svg>
