<svg width="200" height="200" viewBox="0 0 200 200" fill="none" xmlns="http://www.w3.org/2000/svg">
<rect width="200" height="200" rx="40" fill="url(#paint0_linear_3_10)"/>
<path d="M26.304 117V112.2L44.352 87.672H27.168V82.92H50.112V87.72L32.112 112.248H50.496V117H26.304ZM69.4373 117.576C67.0373 117.576 64.9413 117.032 63.1493 115.944C61.3893 114.856 60.0133 113.304 59.0213 111.288C58.0613 109.272 57.5813 106.92 57.5813 104.232C57.5813 101.544 58.0613 99.208 59.0213 97.224C60.0133 95.24 61.3733 93.688 63.1013 92.568C64.8613 91.448 66.9253 90.888 69.2933 90.888C71.5653 90.888 73.5653 91.432 75.2933 92.52C77.0213 93.576 78.3653 95.112 79.3253 97.128C80.3173 99.112 80.8133 101.512 80.8133 104.328V105.672H62.6693C62.8293 108.104 63.5013 109.96 64.6853 111.24C65.9013 112.488 67.5013 113.112 69.4853 113.112C70.9893 113.112 72.2373 112.76 73.2293 112.056C74.2213 111.32 74.9093 110.376 75.2933 109.224L80.3813 109.56C79.6453 111.992 78.3173 113.944 76.3973 115.416C74.5093 116.856 72.1893 117.576 69.4373 117.576ZM62.6693 101.784H75.5813C75.3893 99.608 74.7173 97.992 73.5653 96.936C72.4453 95.88 71.0213 95.352 69.2933 95.352C67.5013 95.352 66.0293 95.896 64.8773 96.984C63.7253 98.072 62.9893 99.672 62.6693 101.784ZM89.2425 117V91.464H93.7065L93.8505 98.136L93.3225 97.752C93.6425 96.184 94.2025 94.904 95.0025 93.912C95.8345 92.888 96.8425 92.136 98.0265 91.656C99.2105 91.144 100.475 90.888 101.819 90.888C103.739 90.888 105.323 91.32 106.571 92.184C107.819 93.016 108.763 94.168 109.403 95.64C110.043 97.08 110.363 98.712 110.363 100.536V117H105.515V101.784C105.515 99.576 105.083 97.912 104.219 96.792C103.387 95.672 102.123 95.112 100.427 95.112C99.2425 95.112 98.1705 95.368 97.2105 95.88C96.2825 96.392 95.5305 97.16 94.9545 98.184C94.3785 99.176 94.0905 100.408 94.0905 101.88V117H89.2425ZM128.776 117V90.168C128.776 89.176 128.488 88.408 127.912 87.864C127.368 87.288 126.6 87 125.608 87H119.752V82.92H126.136C128.6 82.92 130.456 83.56 131.704 84.84C132.984 86.088 133.624 87.944 133.624 90.408V117H128.776ZM118.792 117V112.92H142.216V117H118.792ZM153.045 124.2V120.12H156.165C157.061 120.12 157.717 119.976 158.133 119.688C158.581 119.432 158.917 119 159.141 118.392L160.005 116.136H158.373L149.061 91.464H154.293L161.541 111.576L168.309 91.464H173.493L163.317 119.88C162.805 121.416 162.005 122.52 160.917 123.192C159.861 123.864 158.437 124.2 156.645 124.2H153.045Z" fill="white"/>
<defs>
<linearGradient id="paint0_linear_3_10" x1="0" y1="0" x2="200" y2="200" gradientUnits="userSpaceOnUse">
<stop stop-color="#00D5BE"/>
<stop offset="1" stop-color="#05DF72"/>
</linearGradient>
</defs>
</svg>
